<svg version="1.1" xmlns="http://www.w3.org/2000/svg" xmlns:xlink="http://www.w3.org/1999/xlink" width="70" height="70" viewBox="0,0,70,70"><!-- Generated with https://ivantodorovich.github.io/odoo-icon --><defs><linearGradient x1="70" y1="0" x2="0" y2="70" gradientUnits="userSpaceOnUse" id="color-1"><stop offset="0" stop-color="#ff8451"/><stop offset="1" stop-color="#f4511e"/></linearGradient></defs><g fill="none" fill-rule="nonzero" stroke="none" stroke-width="1" stroke-linecap="butt" stroke-linejoin="miter" stroke-miterlimit="10" stroke-dasharray="" stroke-dashoffset="0" font-family="none" font-weight="none" font-size="none" text-anchor="none" style="mix-blend-mode: normal"><path d="M3.5,70c-1.933,0 -3.5,-1.567 -3.5,-3.5v-63c0,-1.933 1.567,-3.5 3.5,-3.5h63c1.933,0 3.5,1.567 3.5,3.5v63c0,1.933 -1.567,3.5 -3.5,3.5z" id="box" fill="url(#color-1)"/><path d="M65,1h-61c-1.95033,0 -3.2667,0.63396 -3.9491,1.90189c0.28378,-1.64806 1.72001,-2.90189 3.4491,-2.90189h63c1.72965,0 3.16627,1.25466 3.44938,2.90352c-0.69803,-1.26902 -2.34782,-1.90352 -4.94938,-1.90352z" id="topBoxShadow" fill="#ffffff" opacity="0.383"/><path d="M4,69h61c2.66667,0 4.33333,-1 5,-3v0.5c0,1.933 -1.567,3.5 -3.5,3.5h-63c-1.933,0 -3.5,-1.567 -3.5,-3.5c0,-0.1611 0,-0.32777 0,-0.5c0.66667,2 2,3 4,3z" id="bottomBoxShadow" fill="#000000" opacity="0.383"/><path d="M42.85928,35.70004l4.15392,4.15392c0.24579,0.24579 0.24579,0.66364 0,0.86028l-4.15392,4.15392c-0.24579,0.24579 -0.63909,0.24579 -0.88488,0v-2.82661h-19.17194v-3.44111h19.17194v-2.90039c0.1229,-0.1229 0.28266,-0.18434 0.44242,-0.18434c0.15977,0 0.31956,0.06145 0.44246,0.18434zM28.0133,44.94189v2.84752h19.18324v3.44115h-19.18324v2.90404c-0.24579,0.24579 -0.63905,0.24579 -0.88485,0l-4.15395,-4.15392c-0.22121,-0.24579 -0.22121,-0.66365 0,-0.90945l4.15395,-4.12935c0.1229,-0.1229 0.28266,-0.18434 0.44242,-0.18434c0.15977,0 0.31953,0.06145 0.44242,0.18434zM18.66667,57.41667h32.66666v-24.5h-13.27083c-0.85069,0 -1.57378,-0.29774 -2.16927,-0.89323c-0.59549,-0.59549 -0.89323,-1.31858 -0.89323,-2.16927v-13.27083h-16.33333zM39.08333,28.83333h9.53841l-9.53841,-9.53841zM55.41667,32.91667v25.52083c0,0.85069 -0.29774,1.57378 -0.89323,2.16927c-0.59549,0.59549 -1.31858,0.89323 -2.16927,0.89323h-34.70833c-0.85069,0 -1.57378,-0.29774 -2.16927,-0.89323c-0.59549,-0.59549 -0.89323,-1.31858 -0.89323,-2.16927v-42.875c0,-0.85069 0.29774,-1.57378 0.89323,-2.16927c0.59549,-0.59549 1.31858,-0.89323 2.16927,-0.89323h17.35417c0.85069,0 1.78646,0.21267 2.80729,0.63802c1.02083,0.42535 1.82899,0.93576 2.42448,1.53125l13.01562,13.01563c0.59549,0.59549 1.1059,1.40365 1.53125,2.42448c0.42535,1.02083 0.63802,1.9566 0.63802,2.80729z" id="shadow" fill="#000000" opacity="0.3"/><path d="M55.41667,56.4375c0,0.85069 -0.29774,1.57378 -0.89323,2.16927l-11.39323,11.39323h-39.63021c-1.933,0 -3.5,-1.567 -3.5,-3.5l0,-39.63021l15.47656,-15.47656c0.59549,-0.59549 1.31858,-0.89323 2.16927,-0.89323h17.35417c0.85069,0 1.78646,0.21267 2.80729,0.63802c1.02083,0.42535 1.82899,0.93576 2.42448,1.53125l13.01562,13.01563c0.59549,0.59549 1.1059,1.40365 1.53125,2.42448c0.42535,1.02083 0.63802,1.9566 0.63802,2.80729z" id="flatShadow" fill="#000000" opacity="0.324"/><path d="M42.85928,33.70004l4.15392,4.15392c0.24579,0.24579 0.24579,0.66364 0,0.86028l-4.15392,4.15392c-0.24579,0.24579 -0.63909,0.24579 -0.88488,0v-2.82661h-19.17194v-3.44111h19.17194v-2.90039c0.1229,-0.1229 0.28266,-0.18434 0.44242,-0.18434c0.15977,0 0.31956,0.06145 0.44246,0.18434zM28.0133,42.94189v2.84752h19.18324v3.44115h-19.18324v2.90404c-0.24579,0.24579 -0.63905,0.24579 -0.88485,0l-4.15395,-4.15392c-0.22121,-0.24579 -0.22121,-0.66365 0,-0.90945l4.15395,-4.12935c0.1229,-0.1229 0.28266,-0.18434 0.44242,-0.18434c0.15977,0 0.31953,0.06145 0.44242,0.18434zM18.66667,55.41667h32.66666v-24.5h-13.27083c-0.85069,0 -1.57378,-0.29774 -2.16927,-0.89323c-0.59549,-0.59549 -0.89323,-1.31858 -0.89323,-2.16927v-13.27083h-16.33333zM39.08333,26.83333h9.53841l-9.53841,-9.53841zM55.41667,30.91667v25.52083c0,0.85069 -0.29774,1.57378 -0.89323,2.16927c-0.59549,0.59549 -1.31858,0.89323 -2.16927,0.89323h-34.70833c-0.85069,0 -1.57378,-0.29774 -2.16927,-0.89323c-0.59549,-0.59549 -0.89323,-1.31858 -0.89323,-2.16927v-42.875c0,-0.85069 0.29774,-1.57378 0.89323,-2.16927c0.59549,-0.59549 1.31858,-0.89323 2.16927,-0.89323h17.35417c0.85069,0 1.78646,0.21267 2.80729,0.63802c1.02083,0.42535 1.82899,0.93576 2.42448,1.53125l13.01562,13.01563c0.59549,0.59549 1.1059,1.40365 1.53125,2.42448c0.42535,1.02083 0.63802,1.9566 0.63802,2.80729z" id="icon" fill="#ffffff"/></g></svg>